<svg xmlns="http://www.w3.org/2000/svg" viewBox="0 0 512 512" width="512" height="512">
  <defs>
    <linearGradient id="gwind" x1="0.3" y1="0" x2="0.7" y2="1">
    <stop offset="0" stop-color="#a8e8ff"/>
    <stop offset="1" stop-color="#3a88c8"/>
  </linearGradient>
  </defs>
  <g>
    <path fill="none" stroke="url(#gwind)" stroke-width="28" stroke-linecap="round" d="M96 176c40 0 56-20 56-48 0-28-20-44-44-44-24 0-44 16-44 44"/>
      <path fill="none" stroke="#d0f4ff" stroke-width="18" stroke-linecap="round" d="M120 256c56 0 80-28 80-64 0-36-28-60-64-60-36 0-64 24-64 60" opacity="0.7"/>
      <path fill="none" stroke="url(#gwind)" stroke-width="22" stroke-linecap="round" d="M96 336c48 0 68-24 68-56 0-32-24-52-52-52-28 0-52 20-52 52" opacity="0.9"/>
  </g>
</svg>