<svg xmlns="http://www.w3.org/2000/svg" viewBox="0 0 512 512">
  <defs>
    <linearGradient id="g_mountain" x1="0.5" y1="0" x2="0.5" y2="1">
      <stop offset="0" stop-color="#6D4C41"/>
      <stop offset="0.5" stop-color="#5D4037"/>
      <stop offset="1" stop-color="#3E2723"/>
    </linearGradient>
    <linearGradient id="g_lava" x1="0.5" y1="0" x2="0.5" y2="1">
      <stop offset="0" stop-color="#FFD54F"/>
      <stop offset="0.5" stop-color="#FF6F00"/>
      <stop offset="1" stop-color="#D84315"/>
    </linearGradient>
  </defs>
  <path d="M256 60 L140 380 L372 380 Z" fill="url(#g_mountain)" stroke="#3E2723" stroke-width="10"/>
  <path d="M200 380 L230 440 L282 440 L312 380" fill="#3E2723"/>
  <path d="M220 360 L240 400 L272 400 L292 360" fill="url(#g_lava)" opacity="0.6"/>
  <g stroke-linecap="round">
    <path d="M236 60 L216 20" stroke="url(#g_lava)" stroke-width="14"/>
    <path d="M256 60 L256 10" stroke="url(#g_lava)" stroke-width="16"/>
    <path d="M276 60 L296 20" stroke="url(#g_lava)" stroke-width="14"/>
    <circle cx="216" cy="20" r="16" fill="#FFD54F" opacity="0.8"/>
    <circle cx="256" cy="10" r="20" fill="#FF6F00"/>
    <circle cx="296" cy="20" r="16" fill="#FFD54F" opacity="0.8"/>
    <circle cx="210" cy="10" r="8" fill="#FFD54F" opacity="0.6"/>
    <circle cx="302" cy="10" r="8" fill="#FFD54F" opacity="0.6"/>
    <circle cx="240" cy="0" r="10" fill="#FF9800" opacity="0.7"/>
    <circle cx="272" cy="0" r="10" fill="#FF9800" opacity="0.7"/>
  </g>
  <path d="M180 300 C200 310 220 315 240 315" stroke="#D84315" stroke-width="4" opacity="0.3" fill="none"/>
  <path d="M272 315 C292 315 312 310 332 300" stroke="#D84315" stroke-width="4" opacity="0.3" fill="none"/>
</svg>
